<svg width="13" height="24" viewBox="0 0 13 24" fill="none" xmlns="http://www.w3.org/2000/svg">
<path d="M8.00964 24H2.84508V13.2393H0V8.29744H2.845V5.52241C2.845 2.97477 4.4389 0 8.93288 0C10.5171 0 11.6802 0.148473 11.7288 0.15487L12.2056 0.216852L12.0908 4.84161L11.5653 4.83679C11.5643 4.83679 10.3836 4.82557 9.09572 4.82557C8.13726 4.82557 8.01014 5.06212 8.01014 6.00297V8.29852H12.2402L12.0059 13.2404H8.01064V24H8.00964ZM3.91239 22.932H6.94108V12.1719H10.9854L11.1189 9.36542H6.94108V6.00189C6.94108 4.89121 7.19682 3.75652 9.09456 3.75652C9.85711 3.75652 10.5817 3.76026 11.0478 3.764L11.1124 1.1641C10.6409 1.1219 9.85653 1.06797 8.93172 1.06797C5.23078 1.06797 3.91181 3.36885 3.91181 5.52241V9.36542H1.06689V12.1719H3.91189V22.932H3.91239Z" fill="#B89F57"/>
</svg>
