<svg width="32" height="32" viewBox="0 0 32 32" fill="none" xmlns="http://www.w3.org/2000/svg">
<path fill-rule="evenodd" clip-rule="evenodd" d="M4.50044 20.6004C6.98593 20.6004 9.00081 18.5855 9.00081 16.1C9.00081 13.6145 6.98593 11.5996 4.50044 11.5996C2.01495 11.5996 6.10352e-05 13.6145 6.10352e-05 16.1C6.10352e-05 18.5855 2.01495 20.6004 4.50044 20.6004ZM20.3994 27.5977C20.3472 30.0379 18.3528 32 15.9001 32C13.4146 32 11.3997 29.9851 11.3997 27.4996C11.3997 25.0141 13.4146 22.9992 15.9001 22.9992C15.9061 22.9992 15.9124 22.9991 15.9188 22.9988C15.9457 22.9991 15.9726 22.9992 15.9995 22.9992C19.8224 22.9992 22.9296 19.9346 22.9981 16.1281C22.9989 16.1183 22.9993 16.109 22.9993 16.1C22.9993 16.094 22.9992 16.0878 22.9988 16.0815C22.9992 16.0542 22.9993 16.0268 22.9993 15.9995C22.9993 12.1336 19.8654 8.99971 15.9995 8.99971C15.9595 8.99971 15.9196 9.00004 15.8798 9.00071C13.4036 8.9898 11.3997 6.97911 11.3997 4.50038C11.3997 2.01489 13.4146 0 15.9001 0C18.3788 0 20.3895 2.00395 20.4004 4.48012C20.3997 4.51995 20.3994 4.55986 20.3994 4.59985C20.3994 8.46572 23.5333 11.5996 27.3992 11.5996C27.426 11.5996 27.4528 11.5995 27.4795 11.5992C27.4864 11.5995 27.4931 11.5996 27.4997 11.5996C29.9852 11.5996 32.0001 13.6145 32.0001 16.1C32.0001 18.579 29.9957 20.5899 27.5191 20.6003C27.4792 20.5997 27.4392 20.5993 27.3992 20.5993C23.5338 20.5993 20.4001 23.7325 20.3994 27.5977Z" fill="#B89F57"/>
</svg>
