<svg width="24" height="24" viewBox="0 0 24 24" fill="none" xmlns="http://www.w3.org/2000/svg">
<path d="M6.20249 23.9722H0.377758V7.62316H6.20249V23.9722ZM1.44627 22.9037H5.1339V8.69176H1.44627V22.9037ZM3.29116 6.6027C1.47678 6.6027 0 5.1275 0 3.3147C0 1.50189 1.47678 0.027771 3.29116 0.027771C5.10505 0.027771 6.58025 1.50239 6.58025 3.3147C6.58025 5.12808 5.10505 6.6027 3.29116 6.6027ZM3.29116 1.09637C2.06553 1.09637 1.06851 2.09172 1.06851 3.3147C1.06851 4.53875 2.06545 5.5341 3.29116 5.5341C4.51572 5.5341 5.51165 4.53817 5.51165 3.3147C5.51165 2.09172 4.5158 1.09637 3.29116 1.09637ZM24 23.9722H18.1832V16.0082C18.1832 13.6248 17.8937 12.4905 16.2465 12.4905C14.5801 12.4905 13.9309 13.4405 13.9309 15.879V23.9723H8.1163V7.62316H13.7396V8.77988C14.635 7.93624 15.9922 7.24382 17.7665 7.24382C23.2589 7.24382 23.9994 11.1938 23.9994 15.0577V23.9722H24ZM19.2518 22.9037H22.9315V15.0578C22.9315 10.8935 22.0676 8.31242 17.7671 8.31242C15.6459 8.31242 14.2739 9.48834 13.7434 10.495L13.5933 10.7803H12.6717V8.69234H9.1854V22.9043H12.8629V15.879C12.8629 14.6603 12.8629 11.422 16.2471 11.422C19.2524 11.422 19.2524 14.4054 19.2524 16.0083V22.9038H19.2518V22.9037Z" fill="#B89F57"/>
</svg>
